<?xml version="1.0" standalone="no"?>
<!DOCTYPE svg PUBLIC "-//W3C//DTD SVG 20010904//EN"
 "http://www.w3.org/TR/2001/REC-SVG-20010904/DTD/svg10.dtd">
<svg version="1.0" xmlns="http://www.w3.org/2000/svg"
 width="300.000000pt" height="300.000000pt" viewBox="0 0 300.000000 300.000000"
 preserveAspectRatio="xMidYMid meet">
<metadata>
Created by potrace 1.11, written by Peter Selinger 2001-2013
</metadata>
<g transform="translate(0.000000,300.000000) scale(0.100000,-0.100000)"
fill="#000000" stroke="none">
<path d="M1477 2955 c-1 -2 -42 -5 -92 -8 -491 -30 -963 -352 -1186 -807 -37
-77 -97 -241 -105 -289 -3 -14 -7 -33 -10 -41 -3 -8 -8 -33 -11 -55 -3 -22 -9
-60 -13 -85 -9 -49 -6 -334 5 -390 29 -159 92 -349 153 -460 33 -61 131 -208
162 -245 290 -341 685 -526 1123 -527 394 -2 752 147 1032 428 181 182 287
365 373 644 32 102 50 262 47 410 -2 74 -6 146 -8 160 -3 14 -8 43 -12 64 -18
123 -79 300 -144 421 -37 70 -107 182 -121 195 -3 3 -23 27 -45 55 -216 270
-564 465 -920 514 -73 10 -222 20 -228 16z"/>
</g>
</svg>
